<svg xmlns="http://www.w3.org/2000/svg" viewBox="0 0 300 80" width="100%" height="100%">
  <path d="M 35 15 C 21 15 10 26 10 40 C 10 54 21 65 35 65 C 49 65 60 54 60 40 C 60 26 49 15 35 15 Z" fill="#9C251C" />
  <path d="M 35 22 C 30 22 25 25 24 30 L 32 30 C 33 27 34 26 35 26 C 37 26 38 27 38 29 C 38 31 36 33 34 35 C 31 37 29 40 29 44 L 29 46 L 41 46 L 41 42 L 36 42 C 37 39 39 37 41 35 C 43 33 45 30 45 27 C 45 22 41 22 35 22 Z" fill="#F4A222" />
  <text x="75" y="44" font-family="system-ui, -apple-system, sans-serif" font-weight="800" font-size="28" fill="#9C251C" letter-spacing="1.5">ICICI Bank</text>
  <text x="75" y="58" font-family="system-ui, -apple-system, sans-serif" font-weight="500" font-size="9" fill="#8A8A8A" letter-spacing="1">Corporate &amp; Retail Banking</text>
</svg>
